<svg width="259" height="55" viewBox="0 0 259 55" fill="none" xmlns="http://www.w3.org/2000/svg">
<g filter="url(#filter0_d_588_1262)">
<path d="M4 9.4C4 4.20852 8.22468 0 13.4361 0H245.564C250.775 0 255 4.20852 255 9.4V37.6C255 42.7915 250.775 47 245.564 47H13.4361C8.22468 47 4 42.7915 4 37.6V9.4Z" fill="#00274C"/>
<path d="M83.0688 16.0693H86.5847C88.5669 16.0693 90.0137 16.4945 90.9253 17.3449C91.8513 18.1809 92.3143 19.3339 92.3143 20.8041C92.3143 22.5049 91.8151 23.8093 90.8167 24.7173C89.8184 25.6253 88.3354 26.0794 86.3676 26.0794H85.5212V31.96H83.0688V16.0693ZM86.4327 23.939C87.706 23.939 88.5958 23.6579 89.1022 23.0958C89.6086 22.5337 89.8618 21.8563 89.8618 21.0635C89.8618 20.2131 89.6158 19.5213 89.1239 18.988C88.632 18.4547 87.8073 18.1881 86.6498 18.1881H85.5212V23.939H86.4327Z" fill="white"/>
<path d="M99.0698 32.1762C98.0426 32.1762 97.131 31.9456 96.3353 31.4844C95.5395 31.0231 94.9246 30.3962 94.4905 29.6034C94.0564 28.8107 93.8394 27.9315 93.8394 26.9658C93.8394 26.0145 94.0492 25.1425 94.4688 24.3498C94.9029 23.557 95.5178 22.93 96.3135 22.4688C97.1093 22.0076 98.0281 21.777 99.0698 21.777C100.112 21.777 101.023 22.0076 101.804 22.4688C102.6 22.93 103.208 23.557 103.627 24.3498C104.062 25.1425 104.279 26.0145 104.279 26.9658C104.279 27.9315 104.062 28.8107 103.627 29.6034C103.193 30.3962 102.578 31.0231 101.783 31.4844C101.001 31.9456 100.097 32.1762 99.0698 32.1762ZM99.1349 30.2736C99.9741 30.2736 100.632 29.9638 101.11 29.344C101.602 28.7242 101.848 27.9459 101.848 27.009C101.848 26.0722 101.587 25.2866 101.067 24.6524C100.546 24.0038 99.8584 23.6795 99.0047 23.6795C98.18 23.6795 97.5145 23.9966 97.008 24.6308C96.5161 25.265 96.2701 26.0577 96.2701 27.009C96.2701 27.9315 96.5378 28.7098 97.0732 29.344C97.6085 29.9638 98.2958 30.2736 99.1349 30.2736Z" fill="white"/>
<path d="M110.211 32.1762C109.516 32.1762 108.793 32.0897 108.04 31.9168C107.303 31.7294 106.774 31.5132 106.456 31.2682L107.237 29.4305C108.106 30.0358 109.097 30.3385 110.211 30.3385C111.325 30.3385 111.882 30.0142 111.882 29.3656C111.882 29.0773 111.766 28.8539 111.535 28.6954C111.303 28.5368 110.891 28.3495 110.298 28.1333L109.473 27.8306C108.605 27.4847 107.917 27.0739 107.411 26.5982C106.905 26.1082 106.651 25.4668 106.651 24.6741C106.651 23.766 107.006 23.0598 107.715 22.5553C108.438 22.0364 109.401 21.777 110.601 21.777C111.195 21.777 111.773 21.8418 112.338 21.9716C112.916 22.1013 113.358 22.267 113.662 22.4688L112.815 24.3281C112.627 24.1408 112.323 23.9822 111.904 23.8525C111.498 23.7084 111.043 23.6363 110.536 23.6363C109.509 23.6363 108.995 23.9462 108.995 24.566C108.995 24.9119 109.133 25.1785 109.408 25.3659C109.683 25.5389 110.131 25.7334 110.753 25.9496C110.811 25.9641 111.035 26.0433 111.426 26.1875C112.352 26.5478 113.039 26.9586 113.488 27.4198C113.936 27.881 114.161 28.472 114.161 29.1926C114.161 30.1727 113.785 30.915 113.032 31.4195C112.294 31.924 111.354 32.1762 110.211 32.1762Z" fill="white"/>
<path d="M117.463 23.939H115.705V22.0364H117.463V17.9935L119.828 17.4746V22.0364H122.129V23.939H119.828V31.96H117.463V23.939Z" fill="white"/>
<path d="M129.484 16.0693H136.472V18.1881H131.893V22.5769H135.582V24.7389H131.893V29.8196H137.188V31.96H129.484V16.0693Z" fill="white"/>
<path d="M139.485 22.0364H141.785L141.807 23.8525C142.082 23.2471 142.516 22.7499 143.109 22.3607C143.702 21.9716 144.397 21.777 145.192 21.777C146.22 21.777 147.008 21.9932 147.558 22.4256C148.108 22.8436 148.477 23.4345 148.665 24.1984C148.853 24.9623 148.947 25.9568 148.947 27.182V31.96H146.603V27.2468C146.603 25.9929 146.48 25.092 146.234 24.5443C145.988 23.9822 145.482 23.7012 144.715 23.7012C144.281 23.7012 143.84 23.8381 143.391 24.1119C142.943 24.3714 142.566 24.7533 142.263 25.2578C141.973 25.7623 141.828 26.3532 141.828 27.0306V31.96H139.485V22.0364Z" fill="white"/>
<path d="M152.836 23.939H151.078V22.0364H152.836V17.9935L155.202 17.4746V22.0364H157.502V23.939H155.202V31.96H152.836V23.939Z" fill="white"/>
<path d="M159.342 22.0364H161.686V23.9822C161.918 23.3192 162.294 22.7859 162.815 22.3823C163.335 21.9788 163.929 21.777 164.594 21.777C165.057 21.777 165.376 21.8202 165.549 21.9067L165.224 24.2633C165.093 24.1768 164.811 24.1336 164.377 24.1336C163.697 24.1336 163.075 24.3498 162.511 24.7822C161.961 25.2146 161.686 25.9064 161.686 26.8577V31.96H159.342V22.0364Z" fill="white"/>
<path d="M170.072 32.2627L165.948 22.0364H168.596L170.723 28.3495L171.2 29.8845L171.678 28.3495L173.913 22.0364H176.474L170.354 37.4082H167.923L170.072 32.2627Z" fill="white"/>
</g>
<defs>
<filter id="filter0_d_588_1262" x="0" y="0" width="259" height="55" filterUnits="userSpaceOnUse" color-interpolation-filters="sRGB">
<feFlood flood-opacity="0" result="BackgroundImageFix"/>
<feColorMatrix in="SourceAlpha" type="matrix" values="0 0 0 0 0 0 0 0 0 0 0 0 0 0 0 0 0 0 127 0" result="hardAlpha"/>
<feOffset dy="4"/>
<feGaussianBlur stdDeviation="2"/>
<feComposite in2="hardAlpha" operator="out"/>
<feColorMatrix type="matrix" values="0 0 0 0 0 0 0 0 0 0 0 0 0 0 0 0 0 0 0.25 0"/>
<feBlend mode="normal" in2="BackgroundImageFix" result="effect1_dropShadow_588_1262"/>
<feBlend mode="normal" in="SourceGraphic" in2="effect1_dropShadow_588_1262" result="shape"/>
</filter>
</defs>
</svg>
