<svg width="240" height="171" viewBox="0 0 240 171" fill="none" xmlns="http://www.w3.org/2000/svg">
<path d="M1 158.5C1 159.736 1.20412 160.926 1.58128 162.037L2.52823 161.716C3.52473 164.652 5.84821 166.975 8.78443 167.972L8.46305 168.919C9.57435 169.296 10.7644 169.5 12 169.5H14.5V168.5H21.5V169.5H26.5V168.5H33.5V169.5H38.5V168.5H45.5V169.5H50.5V168.5H57.5V169.5H62.5V168.5H69.5V169.5H74.5V168.5H81.5V169.5H86.5V168.5H93.5V169.5H98.5V168.5H105.5V169.5H110.5V168.5H117.5V169.5H122.5V168.5H129.5V169.5H134.5V168.5H141.5V169.5H146.5V168.5H153.5V169.5H158.5V168.5H165.5V169.5H170.5V168.5H177.5V169.5H182.5V168.5H189.5V169.5H194.5V168.5H201.5V169.5H206.5V168.5H213.5V169.5H218.5V168.5H225.5V169.5H228C229.236 169.5 230.426 169.296 231.537 168.919L231.216 167.972C234.152 166.975 236.475 164.652 237.472 161.716L238.419 162.037C238.796 160.926 239 159.736 239 158.5V155.965H238V148.868H239V143.799H238V136.701H239V131.632H238V124.535H239V119.465H238V112.368H239V107.299H238V100.201H239V95.132H238V88.0347H239V82.9653H238V75.8681H239V70.7986H238V63.7014H239V58.632H238V51.5347H239V46.4653H238V39.3681H239V34.2986H238V27.2014H239V22.132H238V15.0347H239V12.5C239 11.2644 238.796 10.0743 238.419 8.96305L237.472 9.28443C236.475 6.34821 234.152 4.02473 231.216 3.02823L231.537 2.08128C230.426 1.70412 229.236 1.5 228 1.5H225.5V2.5H218.5V1.5H213.5V2.5H206.5V1.5H201.5V2.5H194.5V1.5H189.5V2.5H182.5V1.5H177.5V2.5H170.5V1.5H165.5V2.5H158.5V1.5H153.5V2.5H146.5V1.5H141.5V2.5H134.5V1.5H129.5V2.5H122.5V1.5H117.5V2.5H110.5V1.5H105.5V2.5H98.5V1.5H93.5V2.5H86.5V1.5H81.5V2.5H74.5V1.5H69.5V2.5H62.5V1.5H57.5V2.5H50.5V1.5H45.5V2.5H38.5V1.5H33.5V2.5H26.5V1.5H21.5V2.5H14.5V1.5H12C10.7644 1.5 9.57435 1.70412 8.46305 2.08128L8.78443 3.02823C5.84821 4.02473 3.52473 6.34821 2.52823 9.28443L1.58127 8.96306C1.20412 10.0744 1 11.2644 1 12.5V15.0347H2V22.1319H1V27.2014H2V34.2986H1V39.3681H2V46.4653H1V51.5347H2V58.6319H1V63.7014H2V70.7986H1V75.868H2V82.9653H1V88.0347H2V95.1319H1V100.201H2V107.299H1V112.368H2V119.465H1V124.535H2V131.632H1V136.701H2V143.799H1V148.868H2V155.965H1V158.5Z" fill="#6A6E81" fill-opacity="0.21" stroke="#6A6E81" stroke-width="2" stroke-dasharray="5 7"/>
</svg>
