<svg width="1073" height="792" viewBox="0 0 1073 792" fill="none" xmlns="http://www.w3.org/2000/svg">
<g filter="url(#filter0_d_588_1289)">
<path d="M4 57C4 25.5198 29.5198 0 61 0H1012C1043.48 0 1069 25.5198 1069 57V727C1069 758.48 1043.48 784 1012 784H61C29.5198 784 4 758.48 4 727V57Z" fill="white"/>
<path d="M4.5 57C4.5 25.7959 29.7959 0.5 61 0.5H1012C1043.2 0.5 1068.5 25.7959 1068.5 57V727C1068.5 758.204 1043.2 783.5 1012 783.5H61C29.7959 783.5 4.5 758.204 4.5 727V57Z" stroke="black"/>
</g>
<defs>
<filter id="filter0_d_588_1289" x="0" y="0" width="1073" height="792" filterUnits="userSpaceOnUse" color-interpolation-filters="sRGB">
<feFlood flood-opacity="0" result="BackgroundImageFix"/>
<feColorMatrix in="SourceAlpha" type="matrix" values="0 0 0 0 0 0 0 0 0 0 0 0 0 0 0 0 0 0 127 0" result="hardAlpha"/>
<feOffset dy="4"/>
<feGaussianBlur stdDeviation="2"/>
<feComposite in2="hardAlpha" operator="out"/>
<feColorMatrix type="matrix" values="0 0 0 0 0 0 0 0 0 0 0 0 0 0 0 0 0 0 0.25 0"/>
<feBlend mode="normal" in2="BackgroundImageFix" result="effect1_dropShadow_588_1289"/>
<feBlend mode="normal" in="SourceGraphic" in2="effect1_dropShadow_588_1289" result="shape"/>
</filter>
</defs>
</svg>
